<mxfile host="app.diagrams.net" modified="2022-04-06T08:31:07.582Z" agent="5.0 (Windows NT 10.0; Win64; x64) AppleWebKit/537.36 (KHTML, like Gecko) Chrome/100.0.4896.60 Safari/537.36" etag="YClciUvjAbk2nBkQwWLd" version="17.2.5" type="github">
  <diagram name="Page-1" id="13e1069c-82ec-6db2-03f1-153e76fe0fe0">
    <mxGraphModel dx="1038" dy="579" grid="1" gridSize="10" guides="1" tooltips="1" connect="1" arrows="1" fold="1" page="1" pageScale="1" pageWidth="1100" pageHeight="850" background="none" math="0" shadow="0">
      <root>
        <mxCell id="0" />
        <mxCell id="1" parent="0" />
        <mxCell id="7baba1c4bc27f4b0-2" value="Drupal" style="shape=umlLifeline;perimeter=lifelinePerimeter;whiteSpace=wrap;html=1;container=1;collapsible=0;recursiveResize=0;outlineConnect=0;rounded=1;shadow=0;comic=0;labelBackgroundColor=none;strokeWidth=1;fontFamily=Verdana;fontSize=12;align=center;" parent="1" vertex="1">
          <mxGeometry x="240" y="80" width="100" height="580" as="geometry" />
        </mxCell>
        <mxCell id="9YBvCDwWZn9iDiVN-vHV-6" value="" style="html=1;points=[];perimeter=orthogonalPerimeter;rounded=0;shadow=0;comic=0;labelBackgroundColor=none;strokeWidth=1;fontFamily=Verdana;fontSize=12;align=center;" vertex="1" parent="7baba1c4bc27f4b0-2">
          <mxGeometry x="45" y="210" width="10" height="100" as="geometry" />
        </mxCell>
        <mxCell id="7baba1c4bc27f4b0-3" value="Steffi" style="shape=umlLifeline;perimeter=lifelinePerimeter;whiteSpace=wrap;html=1;container=1;collapsible=0;recursiveResize=0;outlineConnect=0;rounded=1;shadow=0;comic=0;labelBackgroundColor=none;strokeWidth=1;fontFamily=Verdana;fontSize=12;align=center;" parent="1" vertex="1">
          <mxGeometry x="400" y="80" width="100" height="580" as="geometry" />
        </mxCell>
        <mxCell id="7baba1c4bc27f4b0-4" value="Oembed player service" style="shape=umlLifeline;perimeter=lifelinePerimeter;whiteSpace=wrap;html=1;container=1;collapsible=0;recursiveResize=0;outlineConnect=0;rounded=1;shadow=0;comic=0;labelBackgroundColor=none;strokeWidth=1;fontFamily=Verdana;fontSize=12;align=center;" parent="1" vertex="1">
          <mxGeometry x="540" y="80" width="100" height="580" as="geometry" />
        </mxCell>
        <mxCell id="7baba1c4bc27f4b0-5" value="ODClip" style="shape=umlLifeline;perimeter=lifelinePerimeter;whiteSpace=wrap;html=1;container=1;collapsible=0;recursiveResize=0;outlineConnect=0;rounded=1;shadow=0;comic=0;labelBackgroundColor=none;strokeWidth=1;fontFamily=Verdana;fontSize=12;align=center;" parent="1" vertex="1">
          <mxGeometry x="680" y="80" width="100" height="580" as="geometry" />
        </mxCell>
        <mxCell id="7baba1c4bc27f4b0-6" value="Hydra" style="shape=umlLifeline;perimeter=lifelinePerimeter;whiteSpace=wrap;html=1;container=1;collapsible=0;recursiveResize=0;outlineConnect=0;rounded=1;shadow=0;comic=0;labelBackgroundColor=none;strokeWidth=1;fontFamily=Verdana;fontSize=12;align=center;" parent="1" vertex="1">
          <mxGeometry x="820" y="80" width="100" height="580" as="geometry" />
        </mxCell>
        <mxCell id="7baba1c4bc27f4b0-7" value="Slutbruger" style="shape=umlLifeline;perimeter=lifelinePerimeter;whiteSpace=wrap;html=1;container=1;collapsible=0;recursiveResize=0;outlineConnect=0;rounded=1;shadow=0;comic=0;labelBackgroundColor=none;strokeWidth=1;fontFamily=Verdana;fontSize=12;align=center;" parent="1" vertex="1">
          <mxGeometry x="960" y="80" width="100" height="580" as="geometry" />
        </mxCell>
        <mxCell id="7baba1c4bc27f4b0-8" value="Redaktør" style="shape=umlLifeline;perimeter=lifelinePerimeter;whiteSpace=wrap;html=1;container=1;collapsible=0;recursiveResize=0;outlineConnect=0;rounded=1;shadow=0;comic=0;labelBackgroundColor=none;strokeWidth=1;fontFamily=Verdana;fontSize=12;align=center;" parent="1" vertex="1">
          <mxGeometry x="100" y="80" width="100" height="580" as="geometry" />
        </mxCell>
        <mxCell id="7baba1c4bc27f4b0-9" value="" style="html=1;points=[];perimeter=orthogonalPerimeter;rounded=0;shadow=0;comic=0;labelBackgroundColor=none;strokeWidth=1;fontFamily=Verdana;fontSize=12;align=center;" parent="7baba1c4bc27f4b0-8" vertex="1">
          <mxGeometry x="45" y="70" width="10" height="470" as="geometry" />
        </mxCell>
        <mxCell id="7baba1c4bc27f4b0-19" value="" style="html=1;points=[];perimeter=orthogonalPerimeter;rounded=0;shadow=0;comic=0;labelBackgroundColor=none;strokeWidth=1;fontFamily=Verdana;fontSize=12;align=center;" parent="1" vertex="1">
          <mxGeometry x="725" y="170" width="10" height="100" as="geometry" />
        </mxCell>
        <mxCell id="7baba1c4bc27f4b0-40" value="" style="shape=note;whiteSpace=wrap;html=1;size=14;verticalAlign=top;align=left;spacingTop=-6;rounded=0;shadow=0;comic=0;labelBackgroundColor=none;strokeWidth=1;fontFamily=Verdana;fontSize=12" parent="1" vertex="1">
          <mxGeometry x="100" y="30" width="100" height="35" as="geometry" />
        </mxCell>
        <mxCell id="7baba1c4bc27f4b0-41" value="Note" style="shape=note;whiteSpace=wrap;html=1;size=14;verticalAlign=top;align=left;spacingTop=-6;rounded=0;shadow=0;comic=0;labelBackgroundColor=none;strokeWidth=1;fontFamily=Verdana;fontSize=12" parent="1" vertex="1">
          <mxGeometry x="240" y="30" width="100" height="35" as="geometry" />
        </mxCell>
        <mxCell id="7baba1c4bc27f4b0-42" value="Note" style="shape=note;whiteSpace=wrap;html=1;size=14;verticalAlign=top;align=left;spacingTop=-6;rounded=0;shadow=0;comic=0;labelBackgroundColor=none;strokeWidth=1;fontFamily=Verdana;fontSize=12" parent="1" vertex="1">
          <mxGeometry x="400" y="30" width="100" height="35" as="geometry" />
        </mxCell>
        <mxCell id="7baba1c4bc27f4b0-43" value="Note" style="shape=note;whiteSpace=wrap;html=1;size=14;verticalAlign=top;align=left;spacingTop=-6;rounded=0;shadow=0;comic=0;labelBackgroundColor=none;strokeWidth=1;fontFamily=Verdana;fontSize=12" parent="1" vertex="1">
          <mxGeometry x="540" y="30" width="100" height="35" as="geometry" />
        </mxCell>
        <mxCell id="7baba1c4bc27f4b0-44" value="Note" style="shape=note;whiteSpace=wrap;html=1;size=14;verticalAlign=top;align=left;spacingTop=-6;rounded=0;shadow=0;comic=0;labelBackgroundColor=none;strokeWidth=1;fontFamily=Verdana;fontSize=12" parent="1" vertex="1">
          <mxGeometry x="680" y="30" width="100" height="35" as="geometry" />
        </mxCell>
        <mxCell id="7baba1c4bc27f4b0-45" value="Note" style="shape=note;whiteSpace=wrap;html=1;size=14;verticalAlign=top;align=left;spacingTop=-6;rounded=0;shadow=0;comic=0;labelBackgroundColor=none;strokeWidth=1;fontFamily=Verdana;fontSize=12" parent="1" vertex="1">
          <mxGeometry x="820" y="30" width="100" height="35" as="geometry" />
        </mxCell>
        <mxCell id="7baba1c4bc27f4b0-46" value="Note" style="shape=note;whiteSpace=wrap;html=1;size=14;verticalAlign=top;align=left;spacingTop=-6;rounded=0;shadow=0;comic=0;labelBackgroundColor=none;strokeWidth=1;fontFamily=Verdana;fontSize=12" parent="1" vertex="1">
          <mxGeometry x="960" y="30" width="100" height="35" as="geometry" />
        </mxCell>
        <mxCell id="9YBvCDwWZn9iDiVN-vHV-2" value="" style="endArrow=classic;html=1;rounded=0;entryX=0.18;entryY=0.194;entryDx=0;entryDy=0;entryPerimeter=0;" edge="1" parent="1" source="7baba1c4bc27f4b0-9" target="7baba1c4bc27f4b0-19">
          <mxGeometry width="50" height="50" relative="1" as="geometry">
            <mxPoint x="500" y="320" as="sourcePoint" />
            <mxPoint x="550" y="270" as="targetPoint" />
          </mxGeometry>
        </mxCell>
        <mxCell id="9YBvCDwWZn9iDiVN-vHV-4" value="Slå klip op" style="edgeLabel;html=1;align=center;verticalAlign=middle;resizable=0;points=[];" vertex="1" connectable="0" parent="9YBvCDwWZn9iDiVN-vHV-2">
          <mxGeometry x="0.2515" y="1" relative="1" as="geometry">
            <mxPoint as="offset" />
          </mxGeometry>
        </mxCell>
        <mxCell id="9YBvCDwWZn9iDiVN-vHV-3" value="" style="endArrow=classic;html=1;rounded=0;entryX=0.98;entryY=0.208;entryDx=0;entryDy=0;entryPerimeter=0;exitX=-0.06;exitY=0.786;exitDx=0;exitDy=0;exitPerimeter=0;" edge="1" parent="1" source="7baba1c4bc27f4b0-19" target="7baba1c4bc27f4b0-9">
          <mxGeometry width="50" height="50" relative="1" as="geometry">
            <mxPoint x="500" y="320" as="sourcePoint" />
            <mxPoint x="550" y="270" as="targetPoint" />
          </mxGeometry>
        </mxCell>
        <mxCell id="9YBvCDwWZn9iDiVN-vHV-5" value="URL med URN til API til PSDB" style="edgeLabel;html=1;align=center;verticalAlign=middle;resizable=0;points=[];" vertex="1" connectable="0" parent="9YBvCDwWZn9iDiVN-vHV-3">
          <mxGeometry x="-0.1763" y="-2" relative="1" as="geometry">
            <mxPoint as="offset" />
          </mxGeometry>
        </mxCell>
        <mxCell id="9YBvCDwWZn9iDiVN-vHV-7" value="" style="endArrow=classic;html=1;rounded=0;exitX=1.22;exitY=0.324;exitDx=0;exitDy=0;exitPerimeter=0;" edge="1" parent="1" source="7baba1c4bc27f4b0-9" target="9YBvCDwWZn9iDiVN-vHV-6">
          <mxGeometry width="50" height="50" relative="1" as="geometry">
            <mxPoint x="500" y="320" as="sourcePoint" />
            <mxPoint x="550" y="270" as="targetPoint" />
          </mxGeometry>
        </mxCell>
        <mxCell id="9YBvCDwWZn9iDiVN-vHV-8" value="Paste URL ind i artikel" style="edgeLabel;html=1;align=center;verticalAlign=middle;resizable=0;points=[];" vertex="1" connectable="0" parent="9YBvCDwWZn9iDiVN-vHV-7">
          <mxGeometry x="-0.302" y="-2" relative="1" as="geometry">
            <mxPoint as="offset" />
          </mxGeometry>
        </mxCell>
        <mxCell id="9YBvCDwWZn9iDiVN-vHV-9" value="" style="endArrow=classic;html=1;rounded=0;" edge="1" parent="1" source="7baba1c4bc27f4b0-7" target="7baba1c4bc27f4b0-6">
          <mxGeometry width="50" height="50" relative="1" as="geometry">
            <mxPoint x="500" y="310" as="sourcePoint" />
            <mxPoint x="550" y="260" as="targetPoint" />
          </mxGeometry>
        </mxCell>
        <mxCell id="9YBvCDwWZn9iDiVN-vHV-10" value="Hent artikel" style="edgeLabel;html=1;align=center;verticalAlign=middle;resizable=0;points=[];" vertex="1" connectable="0" parent="9YBvCDwWZn9iDiVN-vHV-9">
          <mxGeometry x="0.5243" relative="1" as="geometry">
            <mxPoint as="offset" />
          </mxGeometry>
        </mxCell>
        <mxCell id="9YBvCDwWZn9iDiVN-vHV-11" value="" style="endArrow=classic;html=1;rounded=0;" edge="1" parent="1" source="7baba1c4bc27f4b0-6" target="7baba1c4bc27f4b0-3">
          <mxGeometry width="50" height="50" relative="1" as="geometry">
            <mxPoint x="500" y="330" as="sourcePoint" />
            <mxPoint x="550" y="280" as="targetPoint" />
            <Array as="points">
              <mxPoint x="660" y="440" />
            </Array>
          </mxGeometry>
        </mxCell>
        <mxCell id="9YBvCDwWZn9iDiVN-vHV-12" value="Indsaml nødvendige informationer til artiklen" style="edgeLabel;html=1;align=center;verticalAlign=middle;resizable=0;points=[];" vertex="1" connectable="0" parent="9YBvCDwWZn9iDiVN-vHV-11">
          <mxGeometry x="0.1852" y="1" relative="1" as="geometry">
            <mxPoint as="offset" />
          </mxGeometry>
        </mxCell>
        <mxCell id="9YBvCDwWZn9iDiVN-vHV-13" value="Hent artikel" style="endArrow=classic;html=1;rounded=0;" edge="1" parent="1" source="7baba1c4bc27f4b0-3" target="7baba1c4bc27f4b0-2">
          <mxGeometry width="50" height="50" relative="1" as="geometry">
            <mxPoint x="500" y="330" as="sourcePoint" />
            <mxPoint x="550" y="280" as="targetPoint" />
            <Array as="points">
              <mxPoint x="320" y="490" />
            </Array>
          </mxGeometry>
        </mxCell>
        <mxCell id="9YBvCDwWZn9iDiVN-vHV-14" value="Berig OEMBED&amp;nbsp;" style="endArrow=classic;html=1;rounded=0;" edge="1" parent="1" source="7baba1c4bc27f4b0-3" target="7baba1c4bc27f4b0-4">
          <mxGeometry width="50" height="50" relative="1" as="geometry">
            <mxPoint x="500" y="330" as="sourcePoint" />
            <mxPoint x="550" y="280" as="targetPoint" />
            <Array as="points">
              <mxPoint x="510" y="550" />
            </Array>
          </mxGeometry>
        </mxCell>
        <mxCell id="9YBvCDwWZn9iDiVN-vHV-16" value="MU/" style="shape=umlLifeline;perimeter=lifelinePerimeter;whiteSpace=wrap;html=1;container=1;collapsible=0;recursiveResize=0;outlineConnect=0;rounded=1;shadow=0;comic=0;labelBackgroundColor=none;strokeWidth=1;fontFamily=Verdana;fontSize=12;align=center;" vertex="1" parent="1">
          <mxGeometry x="1090" y="80" width="100" height="580" as="geometry" />
        </mxCell>
        <mxCell id="9YBvCDwWZn9iDiVN-vHV-17" value="Note" style="shape=note;whiteSpace=wrap;html=1;size=14;verticalAlign=top;align=left;spacingTop=-6;rounded=0;shadow=0;comic=0;labelBackgroundColor=none;strokeWidth=1;fontFamily=Verdana;fontSize=12" vertex="1" parent="1">
          <mxGeometry x="1090" y="30" width="100" height="35" as="geometry" />
        </mxCell>
        <mxCell id="9YBvCDwWZn9iDiVN-vHV-18" value="" style="endArrow=classic;html=1;rounded=0;" edge="1" parent="1" source="7baba1c4bc27f4b0-4" target="9YBvCDwWZn9iDiVN-vHV-16">
          <mxGeometry width="50" height="50" relative="1" as="geometry">
            <mxPoint x="690" y="400" as="sourcePoint" />
            <mxPoint x="740" y="350" as="targetPoint" />
            <Array as="points">
              <mxPoint x="740" y="590" />
            </Array>
          </mxGeometry>
        </mxCell>
        <mxCell id="9YBvCDwWZn9iDiVN-vHV-19" value="Hent Oplusninger om klip" style="edgeLabel;html=1;align=center;verticalAlign=middle;resizable=0;points=[];" vertex="1" connectable="0" parent="9YBvCDwWZn9iDiVN-vHV-18">
          <mxGeometry x="-0.092" y="-1" relative="1" as="geometry">
            <mxPoint as="offset" />
          </mxGeometry>
        </mxCell>
        <mxCell id="9YBvCDwWZn9iDiVN-vHV-20" value="ODClip" style="shape=umlLifeline;perimeter=lifelinePerimeter;whiteSpace=wrap;html=1;container=1;collapsible=0;recursiveResize=0;outlineConnect=0;rounded=1;shadow=0;comic=0;labelBackgroundColor=none;strokeWidth=1;fontFamily=Verdana;fontSize=12;align=center;" vertex="1" parent="1">
          <mxGeometry x="1230" y="80" width="100" height="580" as="geometry" />
        </mxCell>
        <mxCell id="9YBvCDwWZn9iDiVN-vHV-21" value="Note" style="shape=note;whiteSpace=wrap;html=1;size=14;verticalAlign=top;align=left;spacingTop=-6;rounded=0;shadow=0;comic=0;labelBackgroundColor=none;strokeWidth=1;fontFamily=Verdana;fontSize=12" vertex="1" parent="1">
          <mxGeometry x="1230" y="30" width="100" height="35" as="geometry" />
        </mxCell>
      </root>
    </mxGraphModel>
  </diagram>
</mxfile>
